<svg xmlns="http://www.w3.org/2000/svg" viewBox="0 0 120 480" width="120" height="480">
  <rect width="120" height="480" fill="none"/>

  <!-- Outer rail -->
  <rect x="8" y="0" width="104" height="480" fill="rgba(0,0,0,0.9)"/>
  <rect x="10" y="0" width="100" height="480" fill="rgba(0,0,0,0.85)"/>

  <!-- Inner window strip (transparent center) -->
  <rect x="28" y="40" width="64" height="400" fill="rgba(0,0,0,0)" stroke="rgba(255,255,255,0.35)" stroke-width="1"/>

  <!-- Sprocket holes -->
  <g fill="rgba(255,255,255,0.35)">
    <rect x="14" y="22" width="16" height="18" rx="3"/>
    <rect x="90" y="22" width="16" height="18" rx="3"/>

    <rect x="14" y="70" width="16" height="18" rx="3"/>
    <rect x="90" y="70" width="16" height="18" rx="3"/>

    <rect x="14" y="118" width="16" height="18" rx="3"/>
    <rect x="90" y="118" width="16" height="18" rx="3"/>

    <rect x="14" y="166" width="16" height="18" rx="3"/>
    <rect x="90" y="166" width="16" height="18" rx="3"/>

    <rect x="14" y="214" width="16" height="18" rx="3"/>
    <rect x="90" y="214" width="16" height="18" rx="3"/>

    <rect x="14" y="262" width="16" height="18" rx="3"/>
    <rect x="90" y="262" width="16" height="18" rx="3"/>

    <rect x="14" y="310" width="16" height="18" rx="3"/>
    <rect x="90" y="310" width="16" height="18" rx="3"/>

    <rect x="14" y="358" width="16" height="18" rx="3"/>
    <rect x="90" y="358" width="16" height="18" rx="3"/>

    <rect x="14" y="406" width="16" height="18" rx="3"/>
    <rect x="90" y="406" width="16" height="18" rx="3"/>
  </g>
</svg>
